<svg width="17.000000" height="17.000000" viewBox="0 0 17 17" fill="none" xmlns="http://www.w3.org/2000/svg" xmlns:xlink="http://www.w3.org/1999/xlink">
	<desc>
			Created with Pixso.
	</desc>
	<defs>
		<radialGradient gradientTransform="translate(3.19911 15.3368) rotate(-55.1325) scale(17.5068 13.7479)" cx="0.000000" cy="0.000000" r="1.000000" id="paint_radial_3_8_0" gradientUnits="userSpaceOnUse">
			<stop stop-color="#7A66FB"/>
			<stop offset="0.440198" stop-color="#52A2F4"/>
			<stop offset="0.702000" stop-color="#FC5D6D"/>
			<stop offset="1.000000" stop-color="#E85E7B"/>
		</radialGradient>
	</defs>
	<path id="apple_music" d="M8 16.75C12.83 16.75 16.75 12.83 16.75 8C16.75 3.16 12.83 -0.75 8 -0.75C3.16 -0.75 -0.75 3.16 -0.75 8C-0.75 12.83 3.16 16.75 8 16.75ZM8 15.99C12.4 15.99 15.97 12.41 15.97 8C15.97 3.59 12.4 0.02 8 0.02C3.59 0.02 0.02 3.59 0.02 8C0.02 12.41 3.59 15.99 8 15.99ZM11.47 2.27L6.22 3.31C5.95 3.37 5.75 3.61 5.75 3.88L5.75 10.16C5.75 10.33 5.63 10.48 5.46 10.53L4.08 10.9C3.56 11.03 3.19 11.51 3.19 12.05C3.19 12.9 3.98 13.54 4.81 13.36L5.13 13.3C5.86 13.14 6.39 12.49 6.39 11.74L6.39 6.16C6.39 6.02 6.48 5.9 6.62 5.88L11 4.97C11.17 4.93 11.32 5.06 11.32 5.23L11.32 8.97C11.32 9.15 11.2 9.32 11.02 9.36L9.71 9.71C9.14 9.86 8.75 10.37 8.75 10.95C8.75 11.78 9.51 12.39 10.32 12.22L10.78 12.12C11.46 11.98 11.93 11.39 11.93 10.7L11.93 2.65C11.93 2.41 11.71 2.22 11.47 2.27Z" fill="url(#paint_radial_3_8_0)" fill-opacity="1.000000" fill-rule="evenodd"/>
</svg>
