<svg width="18.000000" height="19.000000" viewBox="0 0 18 19" fill="none" xmlns="http://www.w3.org/2000/svg" xmlns:xlink="http://www.w3.org/1999/xlink">
	<desc>
			Created with Pixso.
	</desc>
	<defs/>
	<path id="Vector" d="M14.17 -0.34C13.72 -0.34 13.32 -0.04 13.21 0.4L12.34 3.66L9.13 3.66C7.76 3.66 6.55 4.48 6.05 5.73L4.89 8.33L3.66 8.33C3.2 8.33 2.78 8.51 2.48 8.81C2.2 9.09 2.02 9.47 2 9.89C1.94 10.86 2.8 11.66 3.77 11.66L7.33 11.66L7.33 15.75C5.03 16.04 3.33 17.08 3.33 18.33L14 18.33C14 17.08 12.29 16.04 10 15.75L10 11.66L11.33 11.66L13.04 11.66L13.39 11.66C13.65 11.66 13.9 11.55 14.09 11.37L14.44 11.02C14.56 10.9 14.65 10.74 14.7 10.56L17.11 0.9C17.19 0.6 17.12 0.29 16.93 0.04C16.74 -0.2 16.45 -0.34 16.14 -0.34L14.17 -0.34ZM9.13 4.99L11.98 4.99L11.1 8.33L6.35 8.33L7.28 6.25C7.58 5.49 8.31 4.99 9.13 4.99ZM3.01 12.99L2.72 13.73C2.41 14.5 1.68 14.99 0.85 14.99L0.66 14.99C0.29 14.99 0 15.29 0 15.66C0 16.03 0.29 16.33 0.66 16.33L0.85 16.33C2.23 16.33 3.44 15.51 3.95 14.23L4.45 12.99L3.33 12.99C3.22 12.99 3.11 12.99 3.01 12.99Z" fill="#FFFFFF" fill-opacity="1.000000" fill-rule="nonzero"/>
</svg>
