<svg width="26.000000" height="26.000000" viewBox="0 0 26 26" fill="none" xmlns="http://www.w3.org/2000/svg" xmlns:xlink="http://www.w3.org/1999/xlink">
	<desc>
			Created with Pixso.
	</desc>
	<defs>
		<clipPath id="clip1_392">
			<rect id="icons8-doorbell 1" width="26.000000" height="26.000000" fill="white" fill-opacity="0"/>
		</clipPath>
	</defs>
	<rect id="icons8-doorbell 1" width="26.000000" height="26.000000" fill="#FFFFFF" fill-opacity="0"/>
	<g clip-path="url(#clip1_392)">
		<path id="Vector" d="M12.99 2.6C12.04 2.6 11.26 3.37 11.26 4.33L11.26 4.56C8.27 5.33 6.06 8.03 6.06 11.26L6.06 13.34C6.06 14.72 5.78 16.07 5.25 17.33L20.74 17.33C20.21 16.07 19.93 14.72 19.93 13.34L19.93 11.26C19.93 8.03 17.72 5.33 14.73 4.56L14.73 4.33C14.73 3.37 13.95 2.6 12.99 2.6ZM4.33 19.06C4.21 19.06 4.1 19.08 3.99 19.13C3.89 19.17 3.79 19.23 3.71 19.31C3.63 19.39 3.56 19.49 3.52 19.6C3.47 19.7 3.45 19.82 3.45 19.93C3.45 20.04 3.47 20.16 3.52 20.26C3.56 20.37 3.63 20.47 3.71 20.55C3.79 20.63 3.89 20.69 3.99 20.73C4.1 20.78 4.21 20.8 4.33 20.8L10.55 20.8C10.45 21.07 10.4 21.37 10.39 21.66C10.39 22.35 10.67 23.01 11.16 23.5C11.64 23.99 12.31 24.26 12.99 24.26C13.68 24.26 14.35 23.99 14.83 23.5C15.32 23.01 15.59 22.35 15.59 21.66C15.59 21.37 15.54 21.07 15.44 20.8L21.66 20.8C21.78 20.8 21.89 20.78 22 20.73C22.1 20.69 22.2 20.63 22.28 20.55C22.36 20.47 22.43 20.37 22.47 20.26C22.52 20.16 22.54 20.04 22.54 19.93C22.54 19.82 22.52 19.7 22.47 19.6C22.43 19.49 22.36 19.39 22.28 19.31C22.2 19.23 22.1 19.17 22 19.13C21.89 19.08 21.78 19.06 21.66 19.06L12.99 19.06L4.33 19.06Z" fill="#8D9095" fill-opacity="1.000000" fill-rule="nonzero"/>
	</g>
</svg>
