<svg width="21.000000" height="15.000000" viewBox="0 0 21 15" fill="none" xmlns="http://www.w3.org/2000/svg" xmlns:xlink="http://www.w3.org/1999/xlink">
	<desc>
			Created with Pixso.
	</desc>
	<defs/>
	<rect id="Box" width="21.000000" height="15.000000" fill="#FFFFFF" fill-opacity="1.000000"/>
	<rect id="Box" x="16.153809" width="4.846153" height="15.000000" fill="#D52B1E" fill-opacity="1.000000"/>
	<rect id="Box" width="4.846154" height="15.000000" fill="#D52B1E" fill-opacity="1.000000"/>
	<path id="Illustration" d="M10.29 12.77L10.7 12.77L10.63 10.41L10.9 10.27L12.92 10.69L12.65 9.86L15.07 7.77L14.4 7.5L14.94 5.83L13.46 6.25L13.19 5.41L12.11 6.66L11.84 6.66L12.38 3.75L11.57 4.3L11.44 4.31L10.5 2.5L9.55 4.3L9.42 4.3L8.61 3.75L9.15 6.66L8.88 6.66L7.8 5.41L7.53 6.25L6.05 5.83L6.59 7.5L5.92 7.77L8.34 9.86L8.07 10.69L10.09 10.27L10.36 10.41L10.29 12.77Z" fill="#D52B1E" fill-opacity="1.000000" fill-rule="evenodd"/>
</svg>
