<svg width="20.000000" height="20.000000" viewBox="0 0 20 20" fill="none" xmlns="http://www.w3.org/2000/svg" xmlns:xlink="http://www.w3.org/1999/xlink">
	<desc>
			Created with Pixso.
	</desc>
	<defs>
		<clipPath id="clip1_599">
			<rect id="icons8-location 1" width="20.000000" height="20.000000" fill="white" fill-opacity="0"/>
		</clipPath>
	</defs>
	<rect id="icons8-location 1" width="20.000000" height="20.000000" fill="#FFFFFF" fill-opacity="0"/>
	<g clip-path="url(#clip1_599)">
		<path id="Vector" d="M10 3C6.7 3 4.02 5.67 4.02 8.97C4.02 12.9 7.91 14.78 8.39 15.22C8.89 15.66 9.3 16.66 9.47 17.23C9.55 17.51 9.77 17.65 10 17.65C10.22 17.65 10.44 17.51 10.53 17.23C10.69 16.66 11.1 15.66 11.6 15.22C12.09 14.78 15.97 12.9 15.97 8.97C15.97 5.67 13.29 3 10 3ZM10 10.6C9.1 10.6 8.37 9.87 8.37 8.97C8.37 8.07 9.1 7.34 10 7.34C10.9 7.34 11.62 8.07 11.62 8.97C11.62 9.87 10.9 10.6 10 10.6Z" fill="#000000" fill-opacity="1.000000" fill-rule="nonzero"/>
	</g>
</svg>
