<svg width="20.000000" height="20.000000" viewBox="0 0 20 20" fill="none" xmlns="http://www.w3.org/2000/svg" xmlns:xlink="http://www.w3.org/1999/xlink">
	<desc>
			Created with Pixso.
	</desc>
	<defs>
		<clipPath id="clip1_779">
			<rect id="icons8-health 1" width="20.000000" height="20.000000" fill="white" fill-opacity="0"/>
		</clipPath>
	</defs>
	<rect id="icons8-health 1" width="20.000000" height="20.000000" fill="#FFFFFF" fill-opacity="0"/>
	<g clip-path="url(#clip1_779)">
		<path id="Vector" d="M10.4 0.8C8.85 0.8 7.6 2.05 7.6 3.6C7.6 5.99 12.8 9.6 12.8 9.6C12.8 9.6 18 5.97 18 3.6C18 2.05 16.74 0.8 15.2 0.8C14.18 0.8 13.28 1.34 12.8 2.16C12.31 1.34 11.42 0.8 10.4 0.8ZM18.41 10.81C18.12 10.83 17.84 10.95 17.62 11.17L13.6 15.2L9.6 15.2L8.8 14.4L11.87 13.78C12.32 13.69 12.69 13.36 12.77 12.91C12.9 12.21 12.37 11.6 11.7 11.6L6.12 11.6C5.27 11.6 4.46 11.93 3.86 12.53L0.4 16L4 19.6L5.36 18.23C5.51 18.08 5.71 18 5.92 18L13.33 18C13.76 18 14.16 17.82 14.46 17.52L19.26 12.72C19.71 12.26 19.71 11.52 19.22 11.08C18.99 10.88 18.7 10.79 18.41 10.81Z" fill="#FFFFFF" fill-opacity="1.000000" fill-rule="nonzero"/>
	</g>
</svg>
