<svg width="24.000000" height="24.000000" viewBox="0 0 24 24" fill="none" xmlns="http://www.w3.org/2000/svg" xmlns:xlink="http://www.w3.org/1999/xlink">
	<desc>
			Created with Pixso.
	</desc>
	<defs/>
	<rect id="Info" width="24.000000" height="24.000000" fill="#FFFFFF" fill-opacity="0"/>
	<path id="Vector" d="M12 21C7.02 21 3 16.97 3 12C3 7.02 7.02 3 12 3C16.97 3 21 7.02 21 12C21 16.97 16.97 21 12 21Z" stroke="#FFFFFF" stroke-opacity="0.250000" stroke-width="1.000000" stroke-linejoin="round"/>
	<path id="Vector" d="M11.25 11.25L12 11.25L12 16.5L12.75 16.5" stroke="#FFFFFF" stroke-opacity="1.000000" stroke-width="2.000000" stroke-linejoin="round" stroke-linecap="round"/>
	<path id="Vector" d="M12.93 7.87C12.93 8.49 12.43 9 11.81 9C11.19 9 10.68 8.49 10.68 7.87C10.68 7.25 11.19 6.75 11.81 6.75C12.43 6.75 12.93 7.25 12.93 7.87Z" fill="#FFFFFF" fill-opacity="1.000000" fill-rule="evenodd"/>
</svg>
