<svg width="11.000000" height="15.000000" viewBox="0 0 11 15" fill="none" xmlns="http://www.w3.org/2000/svg" xmlns:xlink="http://www.w3.org/1999/xlink">
	<desc>
			Created with Pixso.
	</desc>
	<defs/>
	<path id="Vector" d="M10.37 5.12C10 4.7 9.5 4.5 8.95 4.5L5.12 4.5C5.04 4.5 5 4.45 4.95 4.41C4.91 4.33 4.91 4.25 4.95 4.16C5.29 3.41 5.5 2.75 5.66 1.91C5.79 1.45 5.83 1.16 5.83 0.87C5.83 -0.34 4.91 -0.8 4.45 -0.88C4.37 -0.88 4.29 -0.88 4.25 -0.8C4.2 -0.75 1.58 3.04 0.54 4.08C-0.34 4.91 -0.84 5.95 -0.84 7L-0.84 9.75C-0.84 12.12 1.12 14.08 3.54 14.08L7.41 14.08C8.79 14.08 9.91 13.08 10.12 11.7L10.83 6.62C10.91 6.08 10.75 5.54 10.37 5.12Z" fill="#000000" fill-opacity="1.000000" fill-rule="nonzero"/>
</svg>
