<svg width="11.000000" height="13.000000" viewBox="0 0 11 13" fill="none" xmlns="http://www.w3.org/2000/svg" xmlns:xlink="http://www.w3.org/1999/xlink">
	<desc>
			Created with Pixso.
	</desc>
	<defs/>
	<path id="Vector" d="M4.99 -0.67C5.88 -0.67 6.73 -0.32 7.35 0.3C7.98 0.93 8.33 1.78 8.33 2.66L8.33 4.66C8.86 4.66 9.37 4.87 9.74 5.25C10.12 5.62 10.33 6.13 10.33 6.66L10.33 10.66C10.33 11.19 10.12 11.7 9.74 12.07C9.37 12.45 8.86 12.66 8.33 12.66L1.66 12.66C1.13 12.66 0.62 12.45 0.25 12.07C-0.13 11.7 -0.34 11.19 -0.34 10.66L-0.34 6.66C-0.34 6.13 -0.13 5.62 0.25 5.25C0.62 4.87 1.13 4.66 1.66 4.66L1.66 2.66C1.66 1.78 2.01 0.93 2.64 0.3C3.26 -0.32 4.11 -0.67 4.99 -0.67ZM4.99 7.33C4.66 7.33 4.33 7.45 4.09 7.68C3.84 7.91 3.69 8.22 3.66 8.56L3.66 8.66C3.66 8.92 3.74 9.18 3.89 9.4C4.03 9.62 4.24 9.79 4.48 9.89C4.73 9.99 5 10.02 5.25 9.97C5.51 9.92 5.75 9.79 5.94 9.6C6.12 9.42 6.25 9.18 6.3 8.92C6.35 8.66 6.33 8.39 6.23 8.15C6.13 7.91 5.95 7.7 5.74 7.55C5.52 7.41 5.26 7.33 4.99 7.33ZM4.99 0.66C4.46 0.66 3.96 0.87 3.58 1.25C3.21 1.62 2.99 2.13 2.99 2.66L2.99 4.66L6.99 4.66L6.99 2.66C6.99 2.13 6.78 1.62 6.41 1.25C6.03 0.87 5.52 0.66 4.99 0.66Z" fill="#D1FD0A" fill-opacity="1.000000" fill-rule="nonzero"/>
</svg>
