<svg width="17.000000" height="15.000000" viewBox="0 0 17 15" fill="none" xmlns="http://www.w3.org/2000/svg" xmlns:xlink="http://www.w3.org/1999/xlink">
	<desc>
			Created with Pixso.
	</desc>
	<defs/>
	<path id="Vector" d="M4.66 0C4.48 1.76e-5 4.31 0.07 4.19 0.19C4.06 0.32 3.99 0.48 3.99 0.66L3.99 1.33C3.99 1.42 4.01 1.5 4.04 1.59C4.08 1.67 4.12 1.74 4.19 1.81C4.25 1.87 4.32 1.92 4.4 1.95C4.49 1.99 4.57 2 4.66 2C4.75 2 4.84 1.99 4.92 1.95C5 1.92 5.07 1.87 5.14 1.81C5.2 1.74 5.25 1.67 5.28 1.59C5.31 1.5 5.33 1.42 5.33 1.33L10.66 1.33C10.66 1.42 10.68 1.5 10.71 1.59C10.74 1.67 10.79 1.74 10.85 1.81C10.92 1.87 10.99 1.92 11.07 1.95C11.15 1.99 11.24 2 11.33 2C11.42 2 11.5 1.99 11.59 1.95C11.67 1.92 11.74 1.87 11.8 1.81C11.86 1.74 11.91 1.67 11.95 1.59C11.98 1.5 12 1.42 11.99 1.33L11.99 0.66C11.99 0.48 11.92 0.32 11.8 0.19C11.67 0.07 11.5 1.76e-5 11.33 0L4.66 0ZM0.66 3.33C-0.08 3.33 -0.67 3.93 -0.67 4.66L-0.67 13.33C-0.67 14.07 -0.08 14.66 0.66 14.66L15.33 14.66C16.06 14.66 16.66 14.07 16.66 13.33L16.66 4.66C16.66 3.93 16.06 3.33 15.33 3.33L12.66 3.33C12.66 3.7 12.36 4 11.99 4C11.63 4 11.33 3.7 11.33 3.33L9.99 3.33C9.99 3.7 9.7 4 9.33 4C8.96 4 8.66 3.7 8.66 3.33L7.33 3.33C7.33 3.7 7.03 4 6.66 4C6.29 4 5.99 3.7 5.99 3.33L4.66 3.33C4.66 3.7 4.36 4 3.99 4C3.63 4 3.33 3.7 3.33 3.33L0.66 3.33ZM2.66 7.33C3.77 7.33 4.66 8.22 4.66 9.33C4.66 10.43 3.77 11.33 2.66 11.33C1.56 11.33 0.66 10.43 0.66 9.33C0.66 8.22 1.56 7.33 2.66 7.33ZM6.66 7.33L9.33 7.33C9.7 7.33 9.99 7.63 9.99 8L9.99 9.33C9.99 9.7 9.7 10 9.33 10L6.66 10C6.29 10 5.99 9.7 5.99 9.33L5.99 8C5.99 7.63 6.29 7.33 6.66 7.33ZM13.33 7.33C14.43 7.33 15.33 8.22 15.33 9.33C15.33 10.43 14.43 11.33 13.33 11.33C12.22 11.33 11.33 10.43 11.33 9.33C11.33 8.22 12.22 7.33 13.33 7.33Z" fill="#FFFFFF" fill-opacity="1.000000" fill-rule="nonzero"/>
</svg>
