<svg width="20.000000" height="20.000000" viewBox="0 0 20 20" fill="none" xmlns="http://www.w3.org/2000/svg" xmlns:xlink="http://www.w3.org/1999/xlink">
	<desc>
			Created with Pixso.
	</desc>
	<defs>
		<clipPath id="clip1_791">
			<rect id="icons8-other 1" width="20.000000" height="20.000000" fill="white" fill-opacity="0"/>
		</clipPath>
	</defs>
	<rect id="icons8-other 1" width="20.000000" height="20.000000" fill="#FFFFFF" fill-opacity="0"/>
	<g clip-path="url(#clip1_791)">
		<path id="Vector" d="M9.99 1.66C5.4 1.66 1.66 5.4 1.66 9.99C1.66 14.59 5.4 18.33 9.99 18.33C14.59 18.33 18.33 14.59 18.33 9.99C18.33 5.4 14.59 1.66 9.99 1.66ZM5.83 11.03C5.25 11.03 4.79 10.57 4.79 9.99C4.79 9.42 5.25 8.95 5.83 8.95C6.4 8.95 6.87 9.42 6.87 9.99C6.87 10.57 6.4 11.03 5.83 11.03ZM9.99 11.03C9.42 11.03 8.95 10.57 8.95 9.99C8.95 9.42 9.42 8.95 9.99 8.95C10.57 8.95 11.04 9.42 11.04 9.99C11.04 10.57 10.57 11.03 9.99 11.03ZM14.16 11.03C13.59 11.03 13.12 10.57 13.12 9.99C13.12 9.42 13.59 8.95 14.16 8.95C14.74 8.95 15.2 9.42 15.2 9.99C15.2 10.57 14.74 11.03 14.16 11.03Z" fill="#FFFFFF" fill-opacity="1.000000" fill-rule="nonzero"/>
	</g>
</svg>
