<svg width="20.000000" height="20.000000" viewBox="0 0 20 20" fill="none" xmlns="http://www.w3.org/2000/svg" xmlns:xlink="http://www.w3.org/1999/xlink">
	<desc>
			Created with Pixso.
	</desc>
	<defs>
		<clipPath id="clip1_706">
			<rect id="Frame" width="14.000000" height="14.000000" transform="translate(3.000000 2.000000)" fill="white" fill-opacity="0"/>
		</clipPath>
	</defs>
	<path id="Vector" d="M15 0.34C16.5 1.21 17.76 2.46 18.63 3.96C19.51 5.47 19.98 7.17 19.99 8.91C20.01 10.66 19.57 12.37 18.71 13.89C17.86 15.41 16.63 16.68 15.13 17.57C13.64 18.47 11.94 18.96 10.2 18.99C8.46 19.03 6.74 18.61 5.21 17.77C3.68 16.94 2.39 15.72 1.48 14.24C0.57 12.76 0.06 11.06 0 9.32L0 9L0 8.67C0.06 6.94 0.56 5.26 1.46 3.79C2.36 2.31 3.63 1.09 5.14 0.25C6.65 -0.58 8.35 -1.02 10.08 -1C11.8 -0.99 13.5 -0.53 15 0.34Z" fill="#D1FD0A" fill-opacity="1.000000" fill-rule="nonzero"/>
	<rect id="Frame" width="14.000000" height="14.000000" transform="translate(3.000000 2.000000)" fill="#FFFFFF" fill-opacity="0"/>
	<g clip-path="url(#clip1_706)">
		<path id="Vector" d="M6.6 7.73C7.03 8.17 7.63 8.41 8.25 8.41C8.86 8.41 9.46 8.17 9.9 7.73C10.33 7.29 10.58 6.7 10.58 6.08C10.58 5.46 10.33 4.87 9.9 4.43C9.46 3.99 8.86 3.75 8.25 3.75C7.63 3.75 7.03 3.99 6.6 4.43C6.16 4.87 5.91 5.46 5.91 6.08C5.91 6.7 6.16 7.29 6.6 7.73Z" stroke="#000000" stroke-opacity="1.000000" stroke-width="1.800000" stroke-linejoin="round"/>
		<path id="Vector" d="M4.75 14.25L4.75 13.08C4.75 12.46 4.99 11.87 5.43 11.43C5.87 10.99 6.46 10.75 7.08 10.75L9.41 10.75C10.03 10.75 10.62 10.99 11.06 11.43C11.5 11.87 11.75 12.46 11.75 13.08L11.75 14.25" stroke="#000000" stroke-opacity="1.000000" stroke-width="1.800000" stroke-linejoin="round" stroke-linecap="round"/>
		<path id="Vector" d="M12.33 3.82C12.83 3.95 13.28 4.24 13.59 4.65C13.91 5.06 14.08 5.57 14.08 6.08C14.08 6.6 13.91 7.11 13.59 7.51C13.28 7.92 12.83 8.22 12.33 8.34" stroke="#000000" stroke-opacity="1.000000" stroke-width="1.800000" stroke-linejoin="round" stroke-linecap="round"/>
		<path id="Vector" d="M15.25 14.24L15.25 13.08C15.24 12.56 15.07 12.06 14.75 11.66C14.44 11.25 13.99 10.96 13.5 10.83" stroke="#000000" stroke-opacity="1.000000" stroke-width="1.800000" stroke-linejoin="round" stroke-linecap="round"/>
	</g>
</svg>
