<svg width="19.000000" height="19.000000" viewBox="0 0 19 19" fill="none" xmlns="http://www.w3.org/2000/svg" xmlns:xlink="http://www.w3.org/1999/xlink">
	<desc>
			Created with Pixso.
	</desc>
	<defs/>
	<path id="Vector" d="M0.8 -0.61C0.37 -0.61 -0.04 -0.44 -0.34 -0.14C-0.64 0.16 -0.8 0.57 -0.8 0.99L-0.8 5.79C-0.8 6.12 -0.7 6.45 -0.51 6.72C-0.32 6.99 -0.05 7.19 0.27 7.3C0.44 7.36 0.62 7.39 0.8 7.39C0.8 7.39 0.81 7.39 0.81 7.39L10.4 8.99L0.81 10.6C0.81 10.59 0.8 10.59 0.8 10.59C0.61 10.59 0.44 10.63 0.27 10.69C-0.05 10.8 -0.32 11 -0.51 11.27C-0.7 11.54 -0.8 11.86 -0.8 12.19L-0.8 16.99C-0.8 17.42 -0.64 17.82 -0.34 18.12C-0.04 18.42 0.37 18.59 0.8 18.59C1.07 18.59 1.35 18.52 1.59 18.38L1.59 18.38L17.91 9.73L17.91 9.73C18.05 9.67 18.18 9.56 18.26 9.43C18.35 9.3 18.39 9.15 18.4 8.99C18.4 8.84 18.35 8.68 18.26 8.55C18.18 8.42 18.05 8.32 17.91 8.26L1.59 -0.39C1.35 -0.53 1.07 -0.61 0.8 -0.61Z" fill="#535457" fill-opacity="1.000000" fill-rule="nonzero"/>
</svg>
