<svg width="20.000000" height="20.000000" viewBox="0 0 20 20" fill="none" xmlns="http://www.w3.org/2000/svg" xmlns:xlink="http://www.w3.org/1999/xlink">
	<desc>
			Created with Pixso.
	</desc>
	<defs>
		<clipPath id="clip1_806">
			<rect id="icons8-link-3 1" width="14.000000" height="14.000000" transform="translate(3.000000 2.000000)" fill="white" fill-opacity="0"/>
		</clipPath>
	</defs>
	<path id="Vector" d="M15 0.34C16.5 1.21 17.76 2.46 18.63 3.96C19.51 5.47 19.98 7.17 19.99 8.91C20.01 10.66 19.57 12.37 18.71 13.89C17.86 15.41 16.63 16.68 15.13 17.57C13.64 18.47 11.94 18.96 10.2 18.99C8.46 19.03 6.74 18.61 5.21 17.77C3.68 16.94 2.39 15.72 1.48 14.24C0.57 12.76 0.06 11.06 0 9.32L0 9L0 8.67C0.06 6.94 0.56 5.26 1.46 3.79C2.36 2.31 3.63 1.09 5.14 0.25C6.65 -0.58 8.35 -1.02 10.08 -1C11.8 -0.99 13.5 -0.53 15 0.34Z" fill="#D1FD0A" fill-opacity="1.000000" fill-rule="nonzero"/>
	<rect id="icons8-link-3 1" width="14.000000" height="14.000000" transform="translate(3.000000 2.000000)" fill="#FFFFFF" fill-opacity="0"/>
	<g clip-path="url(#clip1_806)">
		<path id="Vector" d="M13.36 3.12C12.71 3.12 12.06 3.36 11.57 3.85L10.17 5.25C9.47 5.95 9.28 6.96 9.57 7.84L10.57 6.83C10.62 6.54 10.74 6.27 10.96 6.05L12.36 4.65C12.64 4.37 13 4.24 13.36 4.24C13.71 4.24 14.07 4.37 14.34 4.65C14.89 5.19 14.89 6.08 14.34 6.62L12.94 8.02C12.72 8.25 12.45 8.37 12.16 8.41L11.15 9.42C11.41 9.51 11.68 9.55 11.95 9.55C12.6 9.55 13.25 9.31 13.74 8.82L15.14 7.42C16.12 6.43 16.12 4.84 15.14 3.85C14.65 3.36 14 3.12 13.36 3.12ZM11.66 6.75C11.52 6.75 11.38 6.81 11.28 6.92L7.92 10.28C7.87 10.33 7.82 10.39 7.79 10.46C7.76 10.53 7.75 10.6 7.75 10.68C7.75 10.75 7.76 10.83 7.79 10.89C7.82 10.96 7.86 11.03 7.91 11.08C7.96 11.13 8.03 11.17 8.1 11.2C8.16 11.23 8.24 11.24 8.31 11.24C8.39 11.24 8.46 11.23 8.53 11.2C8.6 11.17 8.66 11.12 8.71 11.07L12.07 7.71C12.15 7.63 12.21 7.53 12.23 7.42C12.25 7.31 12.24 7.2 12.2 7.09C12.15 6.99 12.08 6.9 11.98 6.84C11.89 6.78 11.78 6.75 11.66 6.75ZM8.16 8.44C7.47 8.41 6.78 8.65 6.25 9.17L4.85 10.57C3.87 11.56 3.87 13.15 4.85 14.14C5.34 14.63 5.99 14.87 6.64 14.87C7.28 14.87 7.93 14.63 8.42 14.14L9.82 12.74C10.51 12.04 10.71 11.03 10.42 10.15L9.41 11.16C9.37 11.45 9.25 11.72 9.02 11.94L7.62 13.34C7.08 13.89 6.19 13.89 5.65 13.34C5.1 12.8 5.1 11.91 5.65 11.37L7.05 9.97C7.27 9.74 7.54 9.62 7.83 9.57L8.84 8.57C8.62 8.5 8.39 8.45 8.16 8.44Z" fill="#000000" fill-opacity="1.000000" fill-rule="nonzero"/>
	</g>
</svg>
