<svg width="24.000000" height="24.000000" viewBox="0 0 24 24" fill="none" xmlns="http://www.w3.org/2000/svg" xmlns:xlink="http://www.w3.org/1999/xlink">
	<desc>
			Created with Pixso.
	</desc>
	<defs>
		<clipPath id="clip1_388">
			<rect id="icons8-settings 1" width="24.000000" height="24.000000" fill="white" fill-opacity="0"/>
		</clipPath>
	</defs>
	<rect id="icons8-settings 1" width="24.000000" height="24.000000" fill="#FFFFFF" fill-opacity="0"/>
	<g clip-path="url(#clip1_388)">
		<path id="Vector" d="M10.49 2C10.01 2 9.6 2.33 9.51 2.8L9.17 4.52C8.35 4.83 7.59 5.26 6.92 5.81L5.28 5.24C4.83 5.09 4.33 5.27 4.09 5.69L2.58 8.3C2.34 8.72 2.43 9.24 2.79 9.56L4.11 10.7C4.04 11.13 4 11.55 4 12C4 12.44 4.04 12.86 4.11 13.29L2.79 14.43C2.43 14.75 2.34 15.27 2.58 15.69L4.09 18.3C4.33 18.72 4.83 18.9 5.28 18.75L6.92 18.18C7.59 18.73 8.35 19.16 9.17 19.47L9.51 21.19C9.6 21.66 10.01 22 10.49 22L13.51 22C13.98 22 14.39 21.66 14.49 21.19L14.82 19.47C15.64 19.16 16.4 18.73 17.07 18.18L18.71 18.75C19.16 18.9 19.66 18.72 19.9 18.3L21.41 15.69C21.65 15.27 21.56 14.75 21.2 14.43L19.88 13.29C19.95 12.86 20 12.44 20 12C20 11.55 19.95 11.13 19.88 10.7L21.2 9.56C21.56 9.24 21.65 8.72 21.41 8.3L19.9 5.69C19.66 5.27 19.16 5.09 18.71 5.24L17.07 5.81C16.4 5.26 15.64 4.83 14.82 4.52L14.49 2.8C14.39 2.33 13.98 2 13.51 2L10.49 2ZM12 8C14.2 8 16 9.79 16 12C16 14.2 14.2 16 12 16C9.79 16 8 14.2 8 12C8 9.79 9.79 8 12 8Z" fill="#8D9095" fill-opacity="1.000000" fill-rule="nonzero"/>
	</g>
</svg>
