<svg width="20.000000" height="20.000000" viewBox="0 0 20 20" fill="none" xmlns="http://www.w3.org/2000/svg" xmlns:xlink="http://www.w3.org/1999/xlink">
	<desc>
			Created with Pixso.
	</desc>
	<defs>
		<clipPath id="clip1_755">
			<rect id="icons8-performance 1" width="20.000000" height="20.000000" fill="white" fill-opacity="0"/>
		</clipPath>
	</defs>
	<rect id="icons8-performance 1" width="20.000000" height="20.000000" fill="#FFFFFF" fill-opacity="0"/>
	<g clip-path="url(#clip1_755)">
		<path id="Vector" d="M9.99 0.8C4.92 0.8 0.79 4.92 0.79 10C0.79 15.07 4.92 19.2 9.99 19.2C15.07 19.2 19.19 15.07 19.19 10C19.19 4.92 15.07 0.8 9.99 0.8ZM12.84 4.23L13.27 3.51C13.38 3.33 13.63 3.26 13.82 3.38C14.01 3.49 14.07 3.74 13.96 3.93L13.53 4.64C13.45 4.77 13.32 4.84 13.18 4.84C13.11 4.84 13.04 4.82 12.98 4.78C12.79 4.67 12.73 4.42 12.84 4.23ZM9.59 2.75C9.59 2.53 9.77 2.35 9.99 2.35C10.22 2.35 10.39 2.53 10.39 2.75L10.39 3.58C10.39 3.8 10.22 3.98 9.99 3.98C9.77 3.98 9.59 3.8 9.59 3.58L9.59 2.75ZM3.42 6.13C3.53 5.94 3.78 5.88 3.97 5.99L4.68 6.42C4.87 6.54 4.94 6.78 4.82 6.97C4.75 7.1 4.61 7.16 4.48 7.16C4.41 7.16 4.34 7.15 4.27 7.11L3.56 6.68C3.37 6.56 3.31 6.32 3.42 6.13ZM2.39 9.95C2.39 9.73 2.57 9.55 2.79 9.55L3.62 9.55C3.84 9.55 4.02 9.73 4.02 9.95C4.02 10.18 3.84 10.35 3.62 10.35L2.79 10.35C2.57 10.35 2.39 10.17 2.39 9.95ZM4.68 13.48L3.97 13.91C3.9 13.95 3.83 13.97 3.76 13.97C3.63 13.97 3.49 13.9 3.42 13.78C3.31 13.59 3.37 13.34 3.56 13.23L4.27 12.8C4.46 12.69 4.71 12.75 4.82 12.94C4.94 13.13 4.87 13.37 4.68 13.48ZM7.01 4.78C6.95 4.82 6.88 4.84 6.81 4.84C6.67 4.84 6.54 4.77 6.46 4.64L6.03 3.93C5.92 3.74 5.98 3.49 6.17 3.38C6.36 3.26 6.61 3.33 6.72 3.52L7.15 4.23C7.26 4.42 7.2 4.67 7.01 4.78ZM10.73 10.95C10.53 11.1 10.28 11.2 9.99 11.2C9.31 11.2 8.79 10.68 8.79 10C8.79 9.46 9.13 9.02 9.6 8.86L9.6 8.86L16.52 6.19L10.74 10.95L10.73 10.95ZM16.57 13.78C16.5 13.9 16.36 13.97 16.23 13.97C16.16 13.97 16.09 13.95 16.02 13.91L15.31 13.48C15.12 13.37 15.05 13.13 15.17 12.94C15.28 12.75 15.53 12.68 15.72 12.8L16.43 13.23C16.62 13.34 16.68 13.59 16.57 13.78ZM17.19 10.35L16.37 10.35C16.15 10.35 15.97 10.18 15.97 9.95C15.97 9.73 16.15 9.55 16.37 9.55L17.19 9.55C17.42 9.55 17.59 9.73 17.59 9.95C17.59 10.18 17.42 10.35 17.19 10.35Z" fill="#FFFFFF" fill-opacity="1.000000" fill-rule="nonzero"/>
	</g>
</svg>
