<svg width="20.000000" height="20.000000" viewBox="0 0 20 20" fill="none" xmlns="http://www.w3.org/2000/svg" xmlns:xlink="http://www.w3.org/1999/xlink">
	<desc>
			Created with Pixso.
	</desc>
	<defs>
		<clipPath id="clip1_767">
			<rect id="icons8-soccer 1" width="20.000000" height="20.000000" fill="white" fill-opacity="0"/>
		</clipPath>
	</defs>
	<rect id="icons8-soccer 1" width="20.000000" height="20.000000" fill="#FFFFFF" fill-opacity="0"/>
	<g clip-path="url(#clip1_767)">
		<path id="Vector" d="M12.4 0C11.29 0 10.4 0.89 10.4 2C10.4 3.1 11.29 4 12.4 4C13.5 4 14.4 3.1 14.4 2C14.4 0.89 13.5 0 12.4 0ZM9.03 3.63C8.96 3.63 8.92 3.65 8.92 3.65C8.92 3.65 4.46 4.19 2.97 4.44C1.69 4.67 1.82 5.66 2.97 5.65C4.06 5.63 8.57 5.65 8.57 5.65C8.57 5.65 5.59 11.92 4.75 13.76C4.53 14.22 4.64 14.82 5.17 15.05C5.81 15.33 6.2 14.86 6.45 14.48C6.8 13.93 8.63 10.74 8.78 10.76C9 10.79 6.11 18.03 5.93 18.63C5.75 19.24 5.87 19.76 6.45 19.93C7.21 20.17 7.49 19.63 7.67 19.21C7.85 18.78 12.55 7.67 12.55 7.67C12.55 7.67 14.31 8.5 14.87 8.72C15.43 8.94 15.73 8.71 15.86 8.6C16.19 8.34 17.8 7.14 18.3 6.72C18.79 6.3 19.35 5.71 18.78 5.15C18.46 4.83 17.95 5.22 17.95 5.22L15.52 7.07C15.52 7.07 13.79 5.83 13.17 5.47C12.41 5.03 10.75 4.13 10.21 3.86C9.78 3.64 9.26 3.63 9.03 3.63ZM13.2 16C12.09 16 11.2 16.89 11.2 18C11.2 19.1 12.09 20 13.2 20C14.3 20 15.2 19.1 15.2 18C15.2 16.89 14.3 16 13.2 16Z" fill="#FFFFFF" fill-opacity="1.000000" fill-rule="nonzero"/>
	</g>
</svg>
