<svg width="20.000000" height="20.000000" viewBox="0 0 20 20" fill="none" xmlns="http://www.w3.org/2000/svg" xmlns:xlink="http://www.w3.org/1999/xlink">
	<desc>
			Created with Pixso.
	</desc>
	<defs>
		<clipPath id="clip1_557">
			<rect id="spotify" width="20.000000" height="20.000000" fill="white" fill-opacity="0"/>
		</clipPath>
	</defs>
	<rect id="spotify" width="20.000000" height="20.000000" fill="#FFFFFF" fill-opacity="0"/>
	<g clip-path="url(#clip1_557)">
		<circle id="bg" cx="10.000000" cy="10.000000" r="8.750000" fill="#1ED760" fill-opacity="1.000000"/>
		<path id="spotify" d="M13.97 13.51C13.82 13.75 13.5 13.81 13.26 13.67C11.29 12.53 8.83 12.28 5.92 12.9C5.64 12.96 5.36 12.8 5.3 12.53C5.24 12.27 5.41 12 5.69 11.94C8.87 11.25 11.6 11.55 13.79 12.83C14.04 12.97 14.12 13.27 13.97 13.51ZM14.99 11.35C14.8 11.64 14.4 11.73 14.09 11.55C11.85 10.24 8.43 9.86 5.78 10.63C5.43 10.72 5.07 10.54 4.97 10.22C4.87 9.88 5.06 9.54 5.41 9.45C8.44 8.58 12.21 8.99 14.79 10.5C15.08 10.67 15.18 11.05 14.99 11.35ZM15.08 9.09C12.39 7.57 7.95 7.43 5.38 8.17C4.97 8.29 4.53 8.07 4.41 7.67C4.28 7.29 4.51 6.87 4.92 6.74C7.87 5.89 12.78 6.06 15.87 7.81C16.24 8.02 16.35 8.47 16.14 8.82C15.93 9.18 15.45 9.31 15.08 9.09Z" fill="#FFFFFF" fill-opacity="1.000000" fill-rule="nonzero"/>
	</g>
</svg>
