<svg width="20.000000" height="20.000000" viewBox="0 0 20 20" fill="none" xmlns="http://www.w3.org/2000/svg" xmlns:xlink="http://www.w3.org/1999/xlink">
	<desc>
			Created with Pixso.
	</desc>
	<defs>
		<clipPath id="clip1_1075">
			<rect id="icons8-stars 2" width="12.000000" height="12.000000" transform="translate(4.000000 3.000000)" fill="white" fill-opacity="0"/>
		</clipPath>
	</defs>
	<path id="Vector" d="M15 0.34C16.5 1.21 17.76 2.46 18.63 3.96C19.51 5.47 19.98 7.17 19.99 8.91C20.01 10.66 19.57 12.37 18.71 13.89C17.86 15.41 16.63 16.68 15.13 17.57C13.64 18.47 11.94 18.96 10.2 18.99C8.46 19.03 6.74 18.61 5.21 17.77C3.68 16.94 2.39 15.72 1.48 14.24C0.57 12.76 0.06 11.06 0 9.32L0 9L0 8.67C0.06 6.94 0.56 5.26 1.46 3.79C2.36 2.31 3.63 1.09 5.14 0.25C6.65 -0.58 8.35 -1.02 10.08 -1C11.8 -0.99 13.5 -0.53 15 0.34Z" fill="#D1FD0A" fill-opacity="1.000000" fill-rule="nonzero"/>
	<rect id="icons8-stars 2" width="12.000000" height="12.000000" transform="translate(4.000000 3.000000)" fill="#FFFFFF" fill-opacity="0"/>
	<g clip-path="url(#clip1_1075)">
		<path id="Vector" d="M11.75 5.5L10.5 8.5L7.5 9.75L10.5 11L11.75 14L13 11L16 9.75L13 8.5L11.75 5.5ZM6.06 6.93L6.75 9L7.43 6.93L9.5 6.25L7.43 5.56L6.75 3.5L6.06 5.56L4 6.25L6.06 6.93ZM7.18 12.31L6.75 11L6.31 12.31L5 12.75L6.31 13.18L6.75 14.5L7.18 13.18L8.5 12.75L7.18 12.31Z" fill="#000000" fill-opacity="1.000000" fill-rule="nonzero"/>
	</g>
</svg>
