<svg width="20.000000" height="20.000000" viewBox="0 0 20 20" fill="none" xmlns="http://www.w3.org/2000/svg" xmlns:xlink="http://www.w3.org/1999/xlink">
	<desc>
			Created with Pixso.
	</desc>
	<defs>
		<clipPath id="clip1_560">
			<rect id="tiktok" width="14.000000" height="14.000000" transform="translate(3.000000 3.000000)" fill="white" fill-opacity="0"/>
		</clipPath>
		<clipPath id="clip1_558">
			<rect id="spotify" width="20.000000" height="20.000000" fill="white" fill-opacity="0"/>
		</clipPath>
	</defs>
	<rect id="spotify" width="20.000000" height="20.000000" fill="#FFFFFF" fill-opacity="0"/>
	<g clip-path="url(#clip1_558)">
		<circle id="bg" cx="10.000000" cy="10.000000" r="8.750000" fill="#212122" fill-opacity="1.000000"/>
		<rect id="tiktok" width="14.000000" height="14.000000" transform="translate(3.000000 3.000000)" fill="#FFFFFF" fill-opacity="0"/>
		<g clip-path="url(#clip1_560)">
			<path id="vector" d="M6.69 11.65C6.76 11.09 6.99 10.77 7.43 10.45C8.06 10.01 8.84 10.25 8.84 10.25L8.84 8.78C9.03 8.77 9.22 8.78 9.41 8.81L9.41 10.71C9.41 10.71 8.63 10.46 8 10.9C7.56 11.23 7.33 11.55 7.26 12.11C7.26 12.42 7.32 12.82 7.58 13.17C7.52 13.13 7.45 13.1 7.38 13.05C6.8 12.66 6.69 12.07 6.69 11.65ZM12.64 6.05C12.2 5.58 12.04 5.1 11.98 4.76L12.52 4.76C12.52 4.76 12.42 5.64 13.2 6.51L13.22 6.52C13 6.38 12.81 6.23 12.64 6.05ZM15.25 7.39L15.25 9.25C15.25 9.25 14.55 9.22 14.04 9.09C13.33 8.91 12.87 8.63 12.87 8.63C12.87 8.63 12.55 8.43 12.53 8.42L12.53 12.26C12.53 12.48 12.47 13.01 12.29 13.46C12.06 14.04 11.7 14.42 11.63 14.5C11.63 14.5 11.19 15.02 10.42 15.37C9.72 15.68 9.11 15.67 8.93 15.68C8.93 15.68 7.87 15.72 6.92 15.1C6.71 14.97 6.52 14.81 6.35 14.64L6.35 14.65C7.3 15.27 8.36 15.22 8.36 15.22C8.54 15.22 9.15 15.22 9.85 14.91C10.62 14.56 11.06 14.04 11.06 14.04C11.13 13.96 11.49 13.58 11.72 13C11.9 12.55 11.96 12.02 11.96 11.8L11.96 7.96C11.98 7.97 12.3 8.17 12.3 8.17C12.3 8.17 12.76 8.45 13.47 8.63C13.99 8.76 14.68 8.79 14.68 8.79L14.68 7.33C14.91 7.38 15.11 7.4 15.25 7.39Z" fill="#EE1D52" fill-opacity="1.000000" fill-rule="nonzero"/>
			<path id="vector" d="M14.68 7.33L14.68 8.79C14.68 8.79 13.99 8.76 13.47 8.63C12.76 8.45 12.3 8.17 12.3 8.17C12.3 8.17 11.98 7.97 11.96 7.96L11.96 11.8C11.96 12.02 11.9 12.55 11.72 13C11.49 13.58 11.13 13.97 11.06 14.04C11.06 14.04 10.62 14.56 9.85 14.91C9.15 15.22 8.54 15.22 8.36 15.22C8.36 15.22 7.3 15.27 6.35 14.65L6.35 14.64C6.25 14.55 6.15 14.44 6.06 14.34C5.76 13.97 5.57 13.53 5.53 13.4C5.53 13.4 5.53 13.4 5.53 13.4C5.45 13.19 5.29 12.66 5.31 12.16C5.35 11.27 5.67 10.72 5.75 10.58C5.97 10.21 6.25 9.88 6.59 9.6C6.89 9.36 7.23 9.16 7.59 9.03C7.99 8.87 8.41 8.78 8.84 8.78L8.84 10.25C8.84 10.25 8.06 10.01 7.43 10.45C6.99 10.77 6.76 11.09 6.69 11.65C6.69 12.07 6.8 12.66 7.38 13.05C7.45 13.1 7.52 13.13 7.58 13.17C7.68 13.3 7.81 13.42 7.95 13.51C8.52 13.87 9 13.9 9.61 13.66C10.02 13.51 10.33 13.15 10.47 12.76C10.56 12.51 10.56 12.27 10.56 12.01L10.56 4.76L11.98 4.76C12.04 5.1 12.2 5.58 12.63 6.05C12.81 6.23 13 6.38 13.21 6.52C13.28 6.58 13.6 6.9 14.01 7.1C14.22 7.2 14.45 7.28 14.68 7.33Z" fill="#FFFFFF" fill-opacity="1.000000" fill-rule="nonzero"/>
			<path id="vector" d="M4.96 12.95L4.96 12.95L4.99 13.05C4.99 13.04 4.98 13 4.96 12.95Z" fill="#69C9D0" fill-opacity="1.000000" fill-rule="nonzero"/>
			<path id="vector" d="M7.59 9.03C7.23 9.16 6.89 9.36 6.59 9.6C6.25 9.88 5.97 10.21 5.75 10.59C5.67 10.72 5.35 11.27 5.31 12.16C5.29 12.67 5.45 13.19 5.53 13.41C5.53 13.41 5.53 13.41 5.53 13.41C5.57 13.53 5.76 13.97 6.06 14.34C6.15 14.45 6.25 14.55 6.35 14.65C6.02 14.43 5.74 14.18 5.49 13.88C5.19 13.51 5.01 13.08 4.96 12.95C4.96 12.95 4.96 12.95 4.96 12.95L4.96 12.95C4.88 12.73 4.73 12.21 4.75 11.71C4.79 10.81 5.1 10.27 5.18 10.13C5.4 9.76 5.69 9.42 6.02 9.14C6.32 8.9 6.66 8.71 7.03 8.57C7.25 8.48 7.49 8.42 7.73 8.37C8.1 8.31 8.47 8.31 8.84 8.36L8.84 8.78C8.41 8.79 7.99 8.87 7.59 9.03Z" fill="#69C9D0" fill-opacity="1.000000" fill-rule="nonzero"/>
			<path id="vector" d="M11.98 4.77L10.56 4.77L10.56 12.01C10.56 12.27 10.56 12.52 10.47 12.76C10.33 13.15 10.02 13.51 9.61 13.66C9 13.9 8.52 13.87 7.95 13.51C7.81 13.42 7.68 13.3 7.58 13.17C8.07 13.42 8.5 13.41 9.04 13.21C9.45 13.05 9.76 12.7 9.9 12.3C9.99 12.06 9.99 11.81 9.99 11.56L9.99 4.31L11.96 4.31C11.96 4.31 11.93 4.49 11.98 4.77ZM14.68 6.93L14.68 7.33C14.45 7.28 14.22 7.2 14.01 7.1C13.6 6.9 13.28 6.58 13.21 6.52C13.29 6.56 13.36 6.6 13.44 6.64C13.94 6.88 14.43 6.95 14.68 6.93Z" fill="#69C9D0" fill-opacity="1.000000" fill-rule="nonzero"/>
		</g>
	</g>
</svg>
