<svg width="20.000000" height="20.000000" viewBox="0 0 20 20" fill="none" xmlns="http://www.w3.org/2000/svg" xmlns:xlink="http://www.w3.org/1999/xlink">
	<desc>
			Created with Pixso.
	</desc>
	<defs>
		<clipPath id="clip1_742">
			<rect id="icons8-beach 1" width="20.000000" height="20.000000" fill="white" fill-opacity="0"/>
		</clipPath>
	</defs>
	<rect id="icons8-beach 1" width="20.000000" height="20.000000" fill="#FFFFFF" fill-opacity="0"/>
	<g clip-path="url(#clip1_742)">
		<path id="Vector" d="M7.33 2C5.12 2 3.33 3.79 3.33 6C3.33 6.34 3.38 6.68 3.46 7C3.9 5.27 5.47 4 7.33 4C8.24 4 9.07 4.3 9.74 4.81C9.15 4.65 8.5 4.61 7.83 4.75C6.3 5.06 5.06 6.29 4.75 7.82C4.56 8.74 4.69 9.61 5.04 10.36C5.27 10.84 6.02 10.69 6 10.15C5.98 9.78 6.02 9.39 6.12 9C6.46 7.59 7.59 6.46 9 6.12C9.33 6.04 9.65 6 9.97 6C9.5 12.16 2.66 14.66 2.66 14.66L2.66 16C2.66 16.73 3.26 17.33 4 17.33L16 17.33C16.73 17.33 17.33 16.73 17.33 16L17.33 14.66C17.33 14.66 16.66 15.33 16 15.33C15.33 15.33 14.66 14.66 14.66 14.66C14.66 14.66 14 15.33 13.33 15.33C12.66 15.33 12 14.66 12 14.66C12 14.66 11.33 15.33 10.66 15.33C10 15.33 9.33 14.66 9.33 14.66L8.06 14.66C8.06 14.66 11.3 12.41 11.33 6.06C11.44 6.08 11.56 6.09 11.67 6.12C13.07 6.47 14.19 7.59 14.54 8.99C14.64 9.38 14.67 9.77 14.66 10.15C14.64 10.68 15.39 10.84 15.62 10.35C15.97 9.61 16.1 8.74 15.91 7.83C15.61 6.35 14.45 5.16 13 4.79C13.32 4.71 13.65 4.66 14 4.66C15.86 4.66 17.42 5.94 17.86 7.66C17.95 7.34 18 7.01 18 6.66C18 4.45 16.2 2.66 14 2.66C12.73 2.66 11.62 3.25 10.88 4.16C10.22 2.88 8.88 2 7.33 2Z" fill="#FFFFFF" fill-opacity="1.000000" fill-rule="nonzero"/>
	</g>
</svg>
