<svg width="20.000000" height="20.000000" viewBox="0 0 20 20" fill="none" xmlns="http://www.w3.org/2000/svg" xmlns:xlink="http://www.w3.org/1999/xlink">
	<desc>
			Created with Pixso.
	</desc>
	<defs>
		<clipPath id="clip1_444">
			<rect id="icons8-update 1" width="20.000000" height="20.000000" fill="white" fill-opacity="0"/>
		</clipPath>
	</defs>
	<rect id="icons8-update 1" width="20.000000" height="20.000000" fill="#FFFFFF" fill-opacity="0"/>
	<g clip-path="url(#clip1_444)">
		<path id="Vector" d="M10 2.5C5.86 2.5 2.5 5.86 2.5 10L4.16 10C4.16 6.78 6.78 4.16 10 4.16C11.82 4.16 13.43 5.01 14.5 6.32L12.5 8.33L17.5 8.33L17.5 3.33L15.69 5.13C14.32 3.52 12.28 2.5 10 2.5ZM15.83 10C15.83 13.21 13.21 15.83 10 15.83C8.17 15.83 6.56 14.98 5.49 13.67L7.5 11.66L2.5 11.66L2.5 16.66L4.3 14.86C5.67 16.47 7.71 17.5 10 17.5C14.13 17.5 17.5 14.13 17.5 10L15.83 10Z" fill="#94969C" fill-opacity="1.000000" fill-rule="nonzero"/>
	</g>
</svg>
